<?xml version="1.0" encoding="utf-8"?>
<!-- Generator: Adobe Illustrator 26.0.1, SVG Export Plug-In . SVG Version: 6.00 Build 0)  -->
<svg version="1.1" id="Layer_1" xmlns="http://www.w3.org/2000/svg" xmlns:xlink="http://www.w3.org/1999/xlink" x="0px" y="0px"
	 viewBox="0 0 100 100" style="enable-background:new 0 0 100 100;" xml:space="preserve">
<g>
	<path d="M26.3,61.4c-2.8-0.2-4.2-0.2-5.8-0.4c-7.6,4.2-1.2,9.6,7,8.8c5.2-0.6,7.2-3,6.6-5.4C33.3,63,31.7,61.8,26.3,61.4z"/>
	<path d="M23.5,48.8c3.8,0,5.8-2.6,5.8-6.2c0-4-2.2-7.2-6.6-7.2c-3.8,0-6,2.4-6,6.2C16.9,45.6,19.1,48.8,23.5,48.8z"/>
	<path d="M63.1,6.8c-0.2,0-0.4,0-0.4,0c-20,0-62.7,4.4-62.7,36.4c0.2,21.8,22,50,46,50c7.8,0,14.4-2.8,20.6-7.4
		c14.8-11,33.4-35.8,33.6-54.9v-0.2C100.1,16,90.1,6.8,63.1,6.8z"/>
</g>
</svg>
