<?xml version="1.0" encoding="utf-8"?>
<!-- Generator: Adobe Illustrator 26.0.1, SVG Export Plug-In . SVG Version: 6.00 Build 0)  -->
<svg version="1.1" id="Layer_1" xmlns="http://www.w3.org/2000/svg" xmlns:xlink="http://www.w3.org/1999/xlink" x="0px" y="0px"
	 viewBox="0 0 39.4 64" style="enable-background:new 0 0 39.4 64;" xml:space="preserve">
<polyline points="39.4,1.4 -1,1.4 -1,64.2 39.4,64.2 "/>
<rect x="-0.4" y="0.9" width="0.5" height="0.6"/>
<rect x="0.5" y="0.9" width="0.5" height="0.6"/>
<rect x="1.4" y="0.9" width="0.5" height="0.6"/>
<rect x="2.4" y="0.9" width="0.5" height="0.6"/>
<rect x="3.3" y="0.9" width="0.5" height="0.6"/>
<rect x="4.3" y="0.9" width="0.5" height="0.6"/>
<rect x="5.2" y="0.9" width="0.5" height="0.6"/>
<rect x="6.1" y="0.9" width="0.5" height="0.6"/>
<rect x="7.1" y="0.9" width="0.5" height="0.6"/>
<rect x="8" y="0.9" width="0.5" height="0.6"/>
<rect x="8.9" y="0.9" width="0.5" height="0.6"/>
<rect x="9.9" y="0.9" width="0.5" height="0.6"/>
<rect x="10.8" y="0.9" width="0.5" height="0.6"/>
<rect x="11.8" y="0.9" width="0.5" height="0.6"/>
<rect x="12.7" y="0.9" width="0.5" height="0.6"/>
<rect x="13.6" y="0.9" width="0.5" height="0.6"/>
<rect x="14.6" y="0.9" width="0.5" height="0.6"/>
<rect x="15.5" y="0.9" width="0.5" height="0.6"/>
<rect x="16.4" y="0.9" width="0.5" height="0.6"/>
<rect x="17.4" y="0.9" width="0.5" height="0.6"/>
<rect x="18.3" y="0.9" width="0.5" height="0.6"/>
<rect x="19.3" y="0.9" width="0.5" height="0.6"/>
<rect x="20.2" y="0.9" width="0.5" height="0.6"/>
<rect x="21.1" y="0.9" width="0.5" height="0.6"/>
<rect x="22.1" y="0.9" width="0.5" height="0.6"/>
<rect x="23" y="0.9" width="0.5" height="0.6"/>
<rect x="23.9" y="0.9" width="0.5" height="0.6"/>
<rect x="24.9" y="0.9" width="0.5" height="0.6"/>
<rect x="25.8" y="0.9" width="0.5" height="0.6"/>
<rect x="26.8" y="0.9" width="0.5" height="0.6"/>
<rect x="27.7" y="0.9" width="0.5" height="0.6"/>
<rect x="28.6" y="0.9" width="0.5" height="0.6"/>
<rect x="29.6" y="0.9" width="0.5" height="0.6"/>
<rect x="30.5" y="0.9" width="0.5" height="0.6"/>
<rect x="31.5" y="0.9" width="0.5" height="0.6"/>
<rect x="32.4" y="0.9" width="0.5" height="0.6"/>
<rect x="33.3" y="0.9" width="0.5" height="0.6"/>
<rect x="34.3" y="0.9" width="0.5" height="0.6"/>
<rect x="35.2" y="0.9" width="0.5" height="0.6"/>
<rect x="36.1" y="0.9" width="0.5" height="0.6"/>
<rect x="37.1" y="0.9" width="0.5" height="0.6"/>
<rect x="38" y="0.9" width="0.5" height="0.6"/>
<rect x="39" y="0.9" width="0.5" height="0.6"/>
<rect x="39.9" y="0.9" width="0.5" height="0.6"/>
<rect x="40.8" y="0.9" width="0.5" height="0.6"/>
<rect x="41.8" y="0.9" width="0.5" height="0.6"/>
<rect x="42.7" y="0.9" width="0.5" height="0.6"/>
<rect x="43.6" y="0.9" width="0.5" height="0.6"/>
</svg>
